<svg id="Layer_1" data-name="Layer 1" xmlns="http://www.w3.org/2000/svg" viewBox="0 0 224 85"><defs><style>.cls-1{fill:#636467;}.cls-2{fill:#9d9ea1;}.cls-3{fill:#01937d;}.cls-4{fill:#e32285;}.cls-5{fill:#fcc016;}.cls-6{fill:#29632d;}.cls-7{fill:#c31348;}.cls-8{fill:#fff;}</style></defs><title>London-Calling-Logo</title><path class="cls-1" d="M186,417.89h4.74v20.3h6.91v4.5H186v-24.8Z" transform="translate(-185.99 -377.19)"/><path class="cls-1" d="M208.07,423.88a9.78,9.78,0,0,1,4.9,1.3,9.52,9.52,0,0,1,4.86,8.33,9.62,9.62,0,0,1-1.29,4.86,9.34,9.34,0,0,1-3.53,3.53,9.77,9.77,0,0,1-4.92,1.27,9.2,9.2,0,0,1-6.76-2.81A9.66,9.66,0,0,1,208.07,423.88Zm0.07,4.34a4.76,4.76,0,0,0-3.58,1.49,5.29,5.29,0,0,0-1.43,3.81,5.38,5.38,0,0,0,1.41,3.87,4.73,4.73,0,0,0,3.58,1.48,4.79,4.79,0,0,0,3.6-1.5,5.9,5.9,0,0,0,0-7.69A4.79,4.79,0,0,0,208.14,428.21Z" transform="translate(-185.99 -377.19)"/><path class="cls-1" d="M220.32,424.35h4.63v1.89a11.1,11.1,0,0,1,2.84-1.84,6.91,6.91,0,0,1,2.61-.52,6.32,6.32,0,0,1,4.64,1.91,6.53,6.53,0,0,1,1.6,4.79V442.7h-4.58v-8a20.43,20.43,0,0,0-.29-4.36,3,3,0,0,0-1-1.64,2.89,2.89,0,0,0-1.81-.56,3.39,3.39,0,0,0-2.4.93,5,5,0,0,0-1.39,2.59,20.75,20.75,0,0,0-.2,3.72v7.36h-4.63V424.35Z" transform="translate(-185.99 -377.19)"/><path class="cls-1" d="M253.38,417.27H258V442.7h-4.63v-1.94a9,9,0,0,1-2.71,1.85,7.54,7.54,0,0,1-2.95.57,8.2,8.2,0,0,1-6.17-2.76,9.6,9.6,0,0,1-2.6-6.86,9.83,9.83,0,0,1,2.52-7,8,8,0,0,1,6.12-2.72,7.78,7.78,0,0,1,3.11.62,8.47,8.47,0,0,1,2.69,1.87v-9.11Zm-4.85,10.86a4.67,4.67,0,0,0-3.55,1.51,6,6,0,0,0,0,7.77,4.67,4.67,0,0,0,3.55,1.53,4.77,4.77,0,0,0,3.61-1.51,5.5,5.5,0,0,0,1.43-4,5.33,5.33,0,0,0-1.43-3.87A4.82,4.82,0,0,0,248.53,428.13Z" transform="translate(-185.99 -377.19)"/><path class="cls-1" d="M270,423.88a9.78,9.78,0,0,1,4.9,1.3,9.52,9.52,0,0,1,4.86,8.33,9.62,9.62,0,0,1-1.3,4.86,9.33,9.33,0,0,1-3.53,3.53,9.77,9.77,0,0,1-4.92,1.27,9.2,9.2,0,0,1-6.76-2.81A9.66,9.66,0,0,1,270,423.88Zm0.07,4.34a4.75,4.75,0,0,0-3.58,1.49,5.29,5.29,0,0,0-1.43,3.81,5.38,5.38,0,0,0,1.41,3.87,4.73,4.73,0,0,0,3.58,1.48,4.79,4.79,0,0,0,3.6-1.5,5.9,5.9,0,0,0,0-7.69A4.79,4.79,0,0,0,270.09,428.21Z" transform="translate(-185.99 -377.19)"/><path class="cls-1" d="M282.27,424.35h4.63v1.89a11.07,11.07,0,0,1,2.84-1.84,6.91,6.91,0,0,1,2.61-.52,6.32,6.32,0,0,1,4.64,1.91,6.54,6.54,0,0,1,1.6,4.79V442.7H294v-8a20.32,20.32,0,0,0-.29-4.36,3,3,0,0,0-1-1.64,2.88,2.88,0,0,0-1.81-.56,3.39,3.39,0,0,0-2.4.93,5,5,0,0,0-1.39,2.59,20.63,20.63,0,0,0-.2,3.72v7.36h-4.63V424.35Z" transform="translate(-185.99 -377.19)"/><path class="cls-2" d="M327.34,422.25L324,425.39a10.27,10.27,0,0,0-7.61-3.56,8.32,8.32,0,0,0-8.45,8.43,8.82,8.82,0,0,0,1.08,4.41,7.74,7.74,0,0,0,3.06,3,8.91,8.91,0,0,0,4.4,1.1,9,9,0,0,0,3.77-.77,13.51,13.51,0,0,0,3.75-2.79l3.21,3.34a17.63,17.63,0,0,1-5.22,3.72,14.24,14.24,0,0,1-5.61,1,12.93,12.93,0,0,1-9.51-3.67,12.67,12.67,0,0,1-3.7-9.4,12.83,12.83,0,0,1,1.68-6.6,12.51,12.51,0,0,1,4.83-4.64,13.66,13.66,0,0,1,6.77-1.75A14.4,14.4,0,0,1,327.34,422.25Z" transform="translate(-185.99 -377.19)"/><path class="cls-2" d="M343.25,424.35h4.63V442.7h-4.63v-1.94a9,9,0,0,1-2.71,1.85,7.56,7.56,0,0,1-2.95.57,8.2,8.2,0,0,1-6.17-2.76,9.61,9.61,0,0,1-2.6-6.86,9.85,9.85,0,0,1,2.52-7,8,8,0,0,1,6.12-2.72,7.79,7.79,0,0,1,3.11.62,8.47,8.47,0,0,1,2.68,1.87v-2Zm-4.85,3.78a4.67,4.67,0,0,0-3.56,1.51,6,6,0,0,0,0,7.77,4.67,4.67,0,0,0,3.55,1.53,4.77,4.77,0,0,0,3.6-1.51,5.51,5.51,0,0,0,1.43-4,5.34,5.34,0,0,0-1.43-3.87A4.82,4.82,0,0,0,338.4,428.13Z" transform="translate(-185.99 -377.19)"/><path class="cls-2" d="M350.74,417.27h4.63V442.7h-4.63V417.27Z" transform="translate(-185.99 -377.19)"/><path class="cls-2" d="M357.73,417.27h4.63V442.7h-4.63V417.27Z" transform="translate(-185.99 -377.19)"/><path class="cls-2" d="M364.73,424.35h4.63V442.7h-4.63V424.35Z" transform="translate(-185.99 -377.19)"/><path class="cls-2" d="M372.25,424.35h4.63v1.89a11.13,11.13,0,0,1,2.84-1.84,6.93,6.93,0,0,1,2.61-.52,6.33,6.33,0,0,1,4.64,1.91,6.53,6.53,0,0,1,1.6,4.79V442.7H384v-8a20.45,20.45,0,0,0-.29-4.36,3,3,0,0,0-1-1.64,2.9,2.9,0,0,0-1.81-.56,3.39,3.39,0,0,0-2.4.93,5,5,0,0,0-1.39,2.59,21.07,21.07,0,0,0-.2,3.72v7.36h-4.63V424.35Z" transform="translate(-185.99 -377.19)"/><path class="cls-2" d="M405.31,424.35h4.63v15.72q0,4.66-1.88,6.85-2.53,3-7.6,3a13.33,13.33,0,0,1-4.55-.67,8.21,8.21,0,0,1-3.12-2,8.09,8.09,0,0,1-1.88-3.18H396a4.22,4.22,0,0,0,1.74,1.17,7.15,7.15,0,0,0,2.52.4,6.67,6.67,0,0,0,3-.57,3.46,3.46,0,0,0,1.59-1.48,7.49,7.49,0,0,0,.47-3.14,7.61,7.61,0,0,1-2.55,1.74,8.16,8.16,0,0,1-3,.53,8.33,8.33,0,0,1-6.25-2.66,10.32,10.32,0,0,1,.15-13.76,8.08,8.08,0,0,1,5.85-2.39,7.79,7.79,0,0,1,3,.58,9.53,9.53,0,0,1,2.83,1.91v-2Zm-4.78,3.82a4.8,4.8,0,0,0-3.6,1.46,5,5,0,0,0-1.42,3.67,5.13,5.13,0,0,0,1.46,3.77,4.92,4.92,0,0,0,3.65,1.47,4.73,4.73,0,0,0,3.54-1.43,5.18,5.18,0,0,0,1.39-3.77,5.11,5.11,0,0,0-1.41-3.73A4.84,4.84,0,0,0,400.54,428.17Z" transform="translate(-185.99 -377.19)"/><path class="cls-3" d="M362.23,408.75V404.1h-0.56a2.31,2.31,0,0,1-2.17-2.43v-0.43H352a1.24,1.24,0,0,0-1.23,1.25v11.38a1.24,1.24,0,0,0,1.23,1.25h12.72v3.95l3.42-3.95h1.79a1.24,1.24,0,0,0,1.23-1.25V404.1h-4.86Z" transform="translate(-185.99 -377.19)"/><path class="cls-4" d="M407.72,382.83H395.4v18.83a2.31,2.31,0,0,1-2.17,2.43H372.38v2a2.29,2.29,0,0,0,2.27,2.32h2.28v6.49l5.63-6.49h25.17a2.29,2.29,0,0,0,2.27-2.32v-21A2.29,2.29,0,0,0,407.72,382.83Z" transform="translate(-185.99 -377.19)"/><path class="cls-5" d="M374.64,382.83H395.4v-3.2a2.31,2.31,0,0,0-2.17-2.44H361.67a2.31,2.31,0,0,0-2.17,2.44v21.6h10.41a1.24,1.24,0,0,1,1.23,1.25v1.61h1.24V385.15A2.29,2.29,0,0,1,374.64,382.83Z" transform="translate(-185.99 -377.19)"/><path class="cls-6" d="M369.91,401.23H359.5v0.43a2.31,2.31,0,0,0,2.17,2.43h0.56v4.66l4-4.66h4.86v-1.61A1.24,1.24,0,0,0,369.91,401.23Z" transform="translate(-185.99 -377.19)"/><path class="cls-7" d="M395.4,401.66V382.83H374.64a2.29,2.29,0,0,0-2.27,2.32V404.1h20.86A2.31,2.31,0,0,0,395.4,401.66Z" transform="translate(-185.99 -377.19)"/><path class="cls-8" d="M378,398a0.9,0.9,0,0,1,.65.27,0.92,0.92,0,0,1,0,1.3,0.93,0.93,0,0,1-1.31,0,0.92,0.92,0,0,1,0-1.3A0.9,0.9,0,0,1,378,398Z" transform="translate(-185.99 -377.19)"/><path class="cls-8" d="M386.75,394.6l-1.34.73a2,2,0,0,0-1.61-.7,2,2,0,0,0-1.46.54,1.82,1.82,0,0,0-.56,1.38,1.76,1.76,0,0,0,.54,1.33,2,2,0,0,0,1.41.52,2.06,2.06,0,0,0,1.68-.73l1.27,0.87a3.92,3.92,0,0,1-5.57.34,3.32,3.32,0,0,1,.81-5.28,3.9,3.9,0,0,1,1.87-.45,3.8,3.8,0,0,1,1.72.38A3.25,3.25,0,0,1,386.75,394.6Z" transform="translate(-185.99 -377.19)"/><path class="cls-8" d="M391.22,393.15a3.41,3.41,0,0,1,1.71.45,3.31,3.31,0,0,1,1.7,2.9,3.34,3.34,0,0,1-.45,1.69,3.25,3.25,0,0,1-1.23,1.23,3.41,3.41,0,0,1-1.72.44A3.36,3.36,0,0,1,391.22,393.15Zm0,1.51a1.66,1.66,0,0,0-1.25.52,1.84,1.84,0,0,0-.5,1.33,1.88,1.88,0,0,0,.49,1.35,1.65,1.65,0,0,0,1.25.52,1.67,1.67,0,0,0,1.26-.52,2.05,2.05,0,0,0,0-2.68A1.67,1.67,0,0,0,391.24,394.66Z" transform="translate(-185.99 -377.19)"/><path class="cls-8" d="M395.93,393.31h1.61V394a2.75,2.75,0,0,1,.92-0.68,2.69,2.69,0,0,1,1.1-.22,2.06,2.06,0,0,1,1.09.29,2.13,2.13,0,0,1,.78.86,2.54,2.54,0,0,1,2.16-1.15,2.27,2.27,0,0,1,1.2.32,1.84,1.84,0,0,1,.75.83,4.42,4.42,0,0,1,.23,1.66v3.75h-1.62v-3.24a2.77,2.77,0,0,0-.27-1.47,0.93,0.93,0,0,0-.81-0.38,1.24,1.24,0,0,0-.74.23,1.39,1.39,0,0,0-.49.65,4,4,0,0,0-.16,1.33v2.88H400v-3.1a4.34,4.34,0,0,0-.13-1.24,1.12,1.12,0,0,0-.38-0.57,1,1,0,0,0-.62-0.19,1.22,1.22,0,0,0-.73.24,1.42,1.42,0,0,0-.49.67,4.11,4.11,0,0,0-.16,1.35v2.84h-1.61v-6.39Z" transform="translate(-185.99 -377.19)"/><path class="cls-3" d="M186.5,450.12h2.42l2.21,4.24,2.2-4.24h2.39l-3.46,6.68v5.1H190v-5.1Z" transform="translate(-185.99 -377.19)"/><path class="cls-3" d="M201.41,453a4.65,4.65,0,0,1,2.33.62,4.52,4.52,0,0,1,2.31,4,4.56,4.56,0,0,1-.61,2.31,4.43,4.43,0,0,1-1.68,1.68,4.64,4.64,0,0,1-2.34.6A4.58,4.58,0,0,1,201.41,453Zm0,2.06a2.26,2.26,0,0,0-1.7.71,2.51,2.51,0,0,0-.68,1.81,2.55,2.55,0,0,0,.67,1.84,2.25,2.25,0,0,0,1.7.7,2.28,2.28,0,0,0,1.71-.71,2.8,2.8,0,0,0,0-3.65A2.28,2.28,0,0,0,201.45,455Z" transform="translate(-185.99 -377.19)"/><path class="cls-3" d="M207.84,453.19h2.22v4.19a5.78,5.78,0,0,0,.17,1.7,1.49,1.49,0,0,0,.54.74,1.57,1.57,0,0,0,.92.26,1.62,1.62,0,0,0,.93-0.26,1.53,1.53,0,0,0,.57-0.76,5.82,5.82,0,0,0,.14-1.61v-4.27h2.19v3.69a9,9,0,0,1-.36,3.12,3.4,3.4,0,0,1-1.3,1.57,4,4,0,0,1-2.19.55,3.89,3.89,0,0,1-2.33-.64,3.38,3.38,0,0,1-1.25-1.78,10.79,10.79,0,0,1-.26-2.88v-3.63Z" transform="translate(-185.99 -377.19)"/><path class="cls-3" d="M217.21,453.19h1.88v1.1a2.34,2.34,0,0,1,.81-1A2,2,0,0,1,221,453a2.05,2.05,0,0,1,.89.22l-0.68,1.88a1.52,1.52,0,0,0-.64-0.19,1,1,0,0,0-.86.63,5.69,5.69,0,0,0-.35,2.45v3.95h-2.18v-8.71Z" transform="translate(-185.99 -377.19)"/><path class="cls-3" d="M227.84,450.12h6.45v2.19h-4.22v2.13h4.22v2.15h-4.22v3.1h4.22v2.2h-6.45V450.12Z" transform="translate(-185.99 -377.19)"/><path class="cls-3" d="M241.51,454.41l-1.36,1.35a2.3,2.3,0,0,0-1.5-.82,0.94,0.94,0,0,0-.58.16,0.47,0.47,0,0,0-.21.39,0.47,0.47,0,0,0,.13.32,2.48,2.48,0,0,0,.66.4l0.8,0.4a4.72,4.72,0,0,1,1.74,1.27,2.64,2.64,0,0,1-.38,3.46,3.29,3.29,0,0,1-2.29.78,3.65,3.65,0,0,1-3.05-1.49l1.35-1.46a3.12,3.12,0,0,0,.9.73,2,2,0,0,0,.92.28,1.11,1.11,0,0,0,.7-0.21,0.6,0.6,0,0,0,.27-0.48,1.36,1.36,0,0,0-1-1l-0.74-.37q-2.12-1.06-2.12-2.67a2.31,2.31,0,0,1,.8-1.77,2.91,2.91,0,0,1,2-.73A3.55,3.55,0,0,1,241.51,454.41Z" transform="translate(-185.99 -377.19)"/><path class="cls-3" d="M248.75,454.41l-1.36,1.35a2.3,2.3,0,0,0-1.5-.82,0.94,0.94,0,0,0-.58.16,0.47,0.47,0,0,0-.21.39,0.47,0.47,0,0,0,.13.32,2.48,2.48,0,0,0,.66.4l0.8,0.4a4.72,4.72,0,0,1,1.74,1.27,2.64,2.64,0,0,1-.38,3.46,3.29,3.29,0,0,1-2.29.78,3.65,3.65,0,0,1-3.05-1.49l1.35-1.46a3.12,3.12,0,0,0,.9.73,2,2,0,0,0,.92.28,1.11,1.11,0,0,0,.7-0.21,0.6,0.6,0,0,0,.27-0.48,1.36,1.36,0,0,0-1-1l-0.74-.37q-2.12-1.06-2.12-2.67a2.31,2.31,0,0,1,.8-1.77,2.91,2.91,0,0,1,2-.73A3.55,3.55,0,0,1,248.75,454.41Z" transform="translate(-185.99 -377.19)"/><path class="cls-3" d="M259.4,458.18h-7a2.33,2.33,0,0,0,.82,1.48,2.57,2.57,0,0,0,1.69.55,2.93,2.93,0,0,0,2.11-.86l1.85,0.86a4.36,4.36,0,0,1-1.66,1.45,5.2,5.2,0,0,1-2.29.47,4.53,4.53,0,0,1-3.35-1.29,4.39,4.39,0,0,1-1.29-3.24,4.54,4.54,0,0,1,1.29-3.31,4.34,4.34,0,0,1,3.24-1.32,4.5,4.5,0,0,1,3.36,1.32,4.75,4.75,0,0,1,1.29,3.48v0.42Zm-2.19-1.72a2.2,2.2,0,0,0-.86-1.18,2.5,2.5,0,0,0-1.49-.46,2.64,2.64,0,0,0-1.61.51,2.86,2.86,0,0,0-.8,1.13h4.76Z" transform="translate(-185.99 -377.19)"/><path class="cls-3" d="M261.17,453.19h2.19v0.89a5.25,5.25,0,0,1,1.35-.87A3.26,3.26,0,0,1,266,453a3,3,0,0,1,2.21.91,3.09,3.09,0,0,1,.76,2.27v5.75h-2.17v-3.81a9.64,9.64,0,0,0-.14-2.07,1.42,1.42,0,0,0-.49-0.78,1.38,1.38,0,0,0-.86-0.27,1.62,1.62,0,0,0-1.14.44,2.37,2.37,0,0,0-.66,1.23,9.89,9.89,0,0,0-.1,1.77v3.49h-2.19v-8.71Z" transform="translate(-185.99 -377.19)"/><path class="cls-3" d="M271.32,450h2.19v3.21h1.3v1.88h-1.3v6.83h-2.19v-6.83h-1.13v-1.88h1.13V450Z" transform="translate(-185.99 -377.19)"/><path class="cls-3" d="M276.84,449.6a1.34,1.34,0,0,1,1,.42,1.43,1.43,0,0,1,0,2,1.33,1.33,0,0,1-1,.41,1.35,1.35,0,0,1-1-.42,1.4,1.4,0,0,1-.41-1A1.39,1.39,0,0,1,276.84,449.6Zm-1.1,3.59h2.19v8.71h-2.19v-8.71Z" transform="translate(-185.99 -377.19)"/><path class="cls-3" d="M286.39,453.19h2.19v8.71h-2.19V461a4.3,4.3,0,0,1-1.29.88,3.62,3.62,0,0,1-1.4.27,3.9,3.9,0,0,1-2.93-1.31,4.55,4.55,0,0,1-1.24-3.25,4.67,4.67,0,0,1,1.2-3.31,3.82,3.82,0,0,1,2.91-1.29,3.71,3.71,0,0,1,1.48.3,4,4,0,0,1,1.28.89v-1ZM284.08,455a2.22,2.22,0,0,0-1.69.72,2.57,2.57,0,0,0-.67,1.84,2.6,2.6,0,0,0,.68,1.86,2.23,2.23,0,0,0,1.69.73,2.27,2.27,0,0,0,1.71-.72,2.61,2.61,0,0,0,.68-1.88,2.54,2.54,0,0,0-.68-1.84A2.3,2.3,0,0,0,284.08,455Z" transform="translate(-185.99 -377.19)"/><path class="cls-3" d="M290.56,449.83h2.19V461.9h-2.19V449.83Z" transform="translate(-185.99 -377.19)"/><path class="cls-3" d="M310.46,452.19l-1.57,1.49a4.88,4.88,0,0,0-3.61-1.69,4,4,0,0,0-4,4,4.19,4.19,0,0,0,.51,2.09,3.67,3.67,0,0,0,1.45,1.43,4.24,4.24,0,0,0,2.09.52,4.32,4.32,0,0,0,1.79-.36,6.43,6.43,0,0,0,1.78-1.33l1.53,1.59a8.4,8.4,0,0,1-2.48,1.77,6.78,6.78,0,0,1-2.66.49,6.14,6.14,0,0,1-4.51-1.74A6,6,0,0,1,299,456a6.09,6.09,0,0,1,.8-3.13,5.94,5.94,0,0,1,2.29-2.2,6.48,6.48,0,0,1,3.21-.83A6.82,6.82,0,0,1,310.46,452.19Z" transform="translate(-185.99 -377.19)"/><path class="cls-3" d="M312.18,453.19h2.22v4.19a5.76,5.76,0,0,0,.17,1.7,1.49,1.49,0,0,0,.54.74,1.57,1.57,0,0,0,.92.26,1.62,1.62,0,0,0,.93-0.26,1.53,1.53,0,0,0,.57-0.76,5.83,5.83,0,0,0,.14-1.61v-4.27h2.19v3.69a9,9,0,0,1-.36,3.12,3.4,3.4,0,0,1-1.3,1.57,4,4,0,0,1-2.19.55,3.89,3.89,0,0,1-2.33-.64,3.38,3.38,0,0,1-1.25-1.78,10.81,10.81,0,0,1-.26-2.88v-3.63Z" transform="translate(-185.99 -377.19)"/><path class="cls-3" d="M321.82,449.83H324V461.9h-2.19V449.83Z" transform="translate(-185.99 -377.19)"/><path class="cls-3" d="M326.28,450h2.19v3.21h1.3v1.88h-1.3v6.83h-2.19v-6.83h-1.13v-1.88h1.13V450Z" transform="translate(-185.99 -377.19)"/><path class="cls-3" d="M330.94,453.19h2.22v4.19a5.81,5.81,0,0,0,.17,1.7,1.49,1.49,0,0,0,.54.74,1.57,1.57,0,0,0,.92.26,1.62,1.62,0,0,0,.93-0.26,1.53,1.53,0,0,0,.57-0.76,5.82,5.82,0,0,0,.14-1.61v-4.27h2.19v3.69a9,9,0,0,1-.36,3.12,3.4,3.4,0,0,1-1.3,1.57,4,4,0,0,1-2.19.55,3.89,3.89,0,0,1-2.33-.64,3.38,3.38,0,0,1-1.25-1.78,10.76,10.76,0,0,1-.26-2.88v-3.63Z" transform="translate(-185.99 -377.19)"/><path class="cls-3" d="M340.31,453.19h1.88v1.1a2.35,2.35,0,0,1,.81-1,2,2,0,0,1,1.11-.34,2.05,2.05,0,0,1,.89.22l-0.68,1.88a1.52,1.52,0,0,0-.63-0.19,1,1,0,0,0-.86.63,5.69,5.69,0,0,0-.35,2.45v3.95h-2.18v-8.71Z" transform="translate(-185.99 -377.19)"/><path class="cls-3" d="M352.54,453.19h2.19v8.71h-2.19V461a4.3,4.3,0,0,1-1.29.88,3.62,3.62,0,0,1-1.4.27,3.9,3.9,0,0,1-2.93-1.31,4.55,4.55,0,0,1-1.24-3.25,4.67,4.67,0,0,1,1.2-3.31,3.82,3.82,0,0,1,2.91-1.29,3.71,3.71,0,0,1,1.48.3,4,4,0,0,1,1.28.89v-1ZM350.24,455a2.22,2.22,0,0,0-1.69.72,2.58,2.58,0,0,0-.67,1.84,2.61,2.61,0,0,0,.68,1.86,2.23,2.23,0,0,0,1.69.73,2.27,2.27,0,0,0,1.71-.72,2.61,2.61,0,0,0,.68-1.88,2.54,2.54,0,0,0-.68-1.84A2.3,2.3,0,0,0,350.24,455Z" transform="translate(-185.99 -377.19)"/><path class="cls-3" d="M356.71,449.83h2.19V461.9h-2.19V449.83Z" transform="translate(-185.99 -377.19)"/><path class="cls-3" d="M365.76,450.12h6.45v2.19H368v2.13h4.22v2.15H368v3.1h4.22v2.2h-6.45V450.12Z" transform="translate(-185.99 -377.19)"/><path class="cls-3" d="M380.52,449.83h2.19V461.9h-2.19V461a4.3,4.3,0,0,1-1.29.88,3.62,3.62,0,0,1-1.4.27,3.9,3.9,0,0,1-2.93-1.31,4.55,4.55,0,0,1-1.24-3.25,4.67,4.67,0,0,1,1.2-3.31,3.82,3.82,0,0,1,2.91-1.29,3.71,3.71,0,0,1,1.48.3,4,4,0,0,1,1.28.89v-4.32ZM378.22,455a2.22,2.22,0,0,0-1.69.72,2.58,2.58,0,0,0-.67,1.84,2.61,2.61,0,0,0,.68,1.86,2.23,2.23,0,0,0,1.69.73,2.27,2.27,0,0,0,1.71-.72,2.61,2.61,0,0,0,.68-1.88,2.54,2.54,0,0,0-.68-1.84A2.3,2.3,0,0,0,378.22,455Z" transform="translate(-185.99 -377.19)"/><path class="cls-3" d="M385.79,449.6a1.34,1.34,0,0,1,1,.42,1.43,1.43,0,0,1,0,2,1.33,1.33,0,0,1-1,.41,1.35,1.35,0,0,1-1-.42,1.4,1.4,0,0,1-.41-1A1.4,1.4,0,0,1,385.79,449.6Zm-1.1,3.59h2.19v8.71h-2.19v-8.71Z" transform="translate(-185.99 -377.19)"/><path class="cls-3" d="M389.15,450h2.19v3.21h1.3v1.88h-1.3v6.83h-2.19v-6.83H388v-1.88h1.13V450Z" transform="translate(-185.99 -377.19)"/></svg>