<?xml version="1.0" encoding="UTF-8" standalone="no"?>
<svg xmlns:rdf="http://www.w3.org/1999/02/22-rdf-syntax-ns#" xmlns="http://www.w3.org/2000/svg" height="82.468" width="245.21" version="1.1" xmlns:cc="http://creativecommons.org/ns#" xmlns:dc="http://purl.org/dc/elements/1.1/" viewBox="0 0 4085.8901 1373.8977">
<metadata>
<rdf:RDF>
<cc:Work rdf:about="">
<dc:format>image/svg+xml</dc:format>
<dc:type rdf:resource="http://purl.org/dc/dcmitype/StillImage"/>
<dc:title/>
</cc:Work>
</rdf:RDF>
</metadata>
<g transform="translate(99.760426,81.118561)">
<rect fill-opacity="0" transform="matrix(16.66309,0,0,16.66309,0,-0.12124464)" height="85.747" width="245" y="-6.325" x="-6"/>
<rect fill-opacity="0" transform="matrix(16.66309,0,0,16.66309,0,-0.12124464)" height="52.63" width="62.253" y="-6.1296" x="-6"/>
<rect fill-opacity="0" transform="matrix(16.66309,0,0,16.66309,0,-0.12124464)" height="15" width="15" y="1.5" x="4"/>
<rect fill-opacity="0" transform="matrix(16.66309,0,0,16.66309,0,-0.12124464)" height="50" width="135" y="6.5" x="59"/>
<rect transform="matrix(16.66309,0,0,16.66309,0,-0.12124464)" height="82.468" width="245.21" y="-4.8682" x="-5.9869" fill="#003780"/>
</g>
<g stroke-width="1" transform="translate(99.760426,81.118561)">
<path style="marker-start:none;" d="m1394.6,1166.6s55.412-56.712,55.412-56.712,17.498-18.904,17.498-18.904,165.26-169.14,165.26-169.14,243.04-248.74,243.04-248.74,12.638-13.929,12.638-13.929,361.64-370.12,361.64-370.12,47.625-48.752,47.625-48.752,10.703-11.939,10.703-11.939,142.9-146.26,142.9-146.26,49.579-50.742,49.579-50.742c3.6261-3.7112,14.504-15.82,18.47-17.312,1.8861-0.71637,4.7733-0.59697,6.8051-0.59697h518.15s-28.192,28.853-28.192,28.853-61.235,62.682-61.235,62.682-9.7409,10.944-9.7409,10.944-62.207,63.676-62.207,63.676-123.46,126.36-123.46,126.36-224.56,229.83-224.56,229.83-12.638,13.929-12.638,13.929-349,357.19-349,357.19-60.263,61.687-60.263,61.687-10.703,11.939-10.703,11.939-139.02,142.28-139.02,142.28-51.524,52.732-51.524,52.732-18.471,17.312-18.471,17.312-6.805,0.5969-6.805,0.5969h-344.14-152.63s-14.582,0.9949-14.582,0.9949h-5.8329c3.1303-6.7855,19.239-21.68,25.276-27.858z" stroke="#000" fill="#fccc00"/>
<path d="m1999.2,1181.5s17.04-17.879,17.04-17.879,19.96-19.865,19.96-19.865,9.05-9.9326,9.05-9.9326,26.98-26.818,26.98-26.818,9.05-9.9326,9.05-9.9326,27.92-27.811,27.92-27.811,8.0799-8.9393,8.0799-8.9393,27.95-27.811,27.95-27.811,9.05-9.9326,9.05-9.9326,28.92-28.805,28.92-28.805,8.0801-8.9393,8.0801-8.9393,64.92-65.555,64.92-65.555,265.08-271.16,265.08-271.16,64.92-65.555,64.92-65.555,118.08-121.18,118.08-121.18,28.92-28.805,28.92-28.805,8.0799-8.9394,8.0799-8.9394,28.92-28.805,28.92-28.805,9.0501-9.9326,9.0501-9.9326,26.95-26.818,26.95-26.818,67.04-68.535,67.04-68.535,16.01-16.885,16.01-16.885,26.95-26.818,26.95-26.818,10.04-10.926,10.04-10.926,26.96-26.818,26.96-26.818,8.0801-8.9393,8.0801-8.9393,64.92-65.555,64.92-65.555,8.0801-8.9393,8.0801-8.9393,28.92-28.805,28.92-28.805,13.04-13.906,13.04-13.906,33.96-33.771,33.96-33.771,16.04-16.885,16.04-16.885,16.28-15.326,16.28-15.326,6.7201-0.56616,6.7201-0.56616h292s-28,28.805-28,28.805-17.96,17.879-17.96,17.879-9.0501,9.9326-9.0501,9.9326-27.9,27.811-27.9,27.811-36.05,36.751-36.05,36.751-10.04,10.926-10.04,10.926-26.96,26.818-26.96,26.818-145.03,148-145.03,148-9.0501,9.9326-9.0501,9.9326-27.95,27.811-27.95,27.811-9.0499,9.9326-9.0499,9.9326-27.95,27.811-27.95,27.811-9.05,9.9326-9.05,9.9326-27.92,27.811-27.92,27.811-8.08,8.9394-8.08,8.9394-28.92,28.805-28.92,28.805-118.08,121.18-118.08,121.18-27.95,27.811-27.95,27.811-9.0499,9.9326-9.0499,9.9326-27.95,27.811-27.95,27.811-9.05,9.9326-9.05,9.9326-27.92,27.811-27.92,27.811-8.08,8.9393-8.08,8.9393-28.92,28.805-28.92,28.805-8.0799,8.9394-8.0799,8.9394-28.92,28.805-28.92,28.805-9.05,9.9326-9.05,9.9326-26.95,26.818-26.95,26.818-9.0499,9.9326-9.0499,9.9326-27.95,27.811-27.95,27.811-61.04,62.575-61.04,62.575-21.01,21.852-21.01,21.852-27.95,27.811-27.95,27.811-10.04,10.926-10.04,10.926-26.96,26.818-26.96,26.818-8.0799,8.9393-8.0799,8.9393-64.92,65.555-64.92,65.555-8.0799,8.9393-8.0799,8.9393-28.92,28.805-28.92,28.805-14.04,14.899-14.04,14.899-51,51.65-51,51.65-17.01,16.29-17.01,16.29-6.99,0.5959-6.99,0.5959h-189-84s-14,0.9933-14,0.9933h-4s10.96-12.912,10.96-12.912z" stroke="#000" fill="#fccc00"/>
<path d="m2437.1,1169.6s20.08-20.858,20.08-20.858,27.13-28.804,27.13-28.804,13.87-13.906,13.87-13.906,62.05-64.562,62.05-64.562,125-130.12,125-130.12,384.08-400.28,384.08-400.28,146-151.97,146-151.97,42-43.703,42-43.703,12.87-12.912,12.87-12.912,83.05-86.414,83.05-86.414,125-130.12,125-130.12,42-43.703,42-43.703,9.0501-9.9326,9.0501-9.9326,17.27-16.319,17.27-16.319,6.7201-0.56616,6.7201-0.56616h330s-0.9998,17.879-0.9998,17.879v245.34c-0.017,11.422-6.23,15.127-14,22.845,0,0-24.96,25.825-24.96,25.825s-115.03,120.18-115.03,120.18-9.0499,9.9326-9.0499,9.9326-38.05,39.73-38.05,39.73-11.87,11.919-11.87,11.919-46.13,48.67-46.13,48.67-31.87,32.778-31.87,32.778-85.13,89.393-85.13,89.393-32.82,33.771-32.82,33.771-161.18,168.85-161.18,168.85-32.82,33.771-32.82,33.771-142.18,148.99-142.18,148.99-13.82,13.906-13.82,13.906-26.13,27.811-26.13,27.811-14.68,14.899-14.68,14.899-17.19,17.879-17.19,17.879-35.09,36.751-35.09,36.751c-4.01,4.0029-12.46,14.631-17,16.29-1.9399,0.715-4.91,0.5959-7,0.5959h-395-175s-15,0.9933-15,0.9933h-7s22.83-24.832,22.83-24.832z" stroke="#000" fill="#e60204"/>
<path d="m1300.3-4.5615v404h-95v-29c-22.79,19.71-53.09,36.95-84,37h-17c-20.34-0.03-41.93-8.23-58-20.5-31.4-23.98-47.01-66.14-50.08-104.5,0,0-0.9199-12-0.9199-12-0.03-18.2-0.6201-32.81,2.43-51,7.39-44.01,31.73-85.6,72.57-106.03,23.97-12,42.73-14.27,69-13.97,22.06,0.25999,46.57,8.92,66,19v-123h95zm-957.02,17v76h-121v311h-101v-311h-120v-76h342zm1327,363c0,2.1,0.2499,5.61-0.9898,7.35-1.3397,1.88-5.8299,3.4-8.0099,4.23,0,0-22,7.44-22,7.44-39.45,12.14-67.3,13.45-108,12.98,0,0-21-1.84-21-1.84-51.98-5.56-104.05-26.8-128.73-76.16-14.59-29.18-15.64-55.31-15.27-87,0.08-6.49,2.08-20.42,3.4-27,10.03-50.15,41.64-87.47,89.6-105.58,27.87-10.51,55.65-11.76,85-11.42,0,0,10,0.91,10,0.91,30.32,2.22,57.46,10.66,81,30.53,25.34,21.38,36.74,56.47,39.09,88.56,0,0,0.9098,12,0.9098,12v41h-214c2.57,14.29,3.86,24.68,12.78,37,15.4,21.25,44.64,31.7,70.22,32,15.86,0.17996,25.03,0.61003,41-2.08,7.8-1.31,15.5-3.39,23-5.92,9.39-3.17,23.23-9.15,32-13.78,0,0,18-10.52,18-10.52,2.93-0.97995,8.72-0.70001,12-0.70001v68zm-921-275.09s12-0.91001,12-0.91001h22c19.44,0,36.74,0.73,56,3.92,29.41,4.87,59.74,14.94,76.92,41.08,17.52,26.65,15.08,60.49,15.08,91v164h-94v-29s-34,22.74-34,22.74c-24.5,12.64-45.1,14.3-72,14.26-28.31-0.04-58.22-14.21-75.24-37-15.8-21.15-17.05-38.81-16.76-64,0.22995-19.32,8.37-38.75,21.29-52.96,28.81-31.68,86.35-38.17,126.71-42.21,0,0,36-2.92,36-2.92s14-0.90997,14-0.90997c0-5.66,0.07-8.46-1.75-14-5.49-16.76-21.49-22.8-37.25-26-34.08-6.9-64.4-2.53-97,8.33,0,0-28,9.48-28,9.48-2.54,0.31993-6.32,0.18996-9,0v-71.81c29.09-5.85,55.25-11.04,85-13.09zm-229,26.78c17.52-11.28,41.95-20.66,63-20.65h17s9,0.95999,9,0.95999v90s-43-4-43-4c-16.43-0.03-31.83-0.06-48,3.65,0,0-19,5.02-19,5.02-2.27,0.75-5.59,1.66-6.98,3.75-1.2401,1.87-1.02,5.37-1.02,7.58v186h-95v-292h95v41s29-21.31,29-21.31zm1045.9,44.4c-20.82-20.82-68.59-17.26-88.87,2.95-10.54,10.5-15.37,26.34-16.04,40.96h120c-0.04-14.96-4.22-33.04-15.09-43.91zm-457.99,22.91c-17.44,23.79-17.99,59.93-14.05,88,1.89,13.46,6.61,28.89,16.42,38.71,13.65,13.67,35.39,16.47,53.71,14,9.42-1.2701,21.57-5.12,30-9.49,2.48-1.2901,8.57-4.53,10.01-6.75,1.2301-1.91,0.99-5.23,0.99-7.47v-127c-0.01-2.61,0.3699-6.19-1.6-8.18-1.87-1.9-8.65-3.66-11.4-4.35-9.15-2.27-24.64-4.06-34-3.19-22.01,3.18-36.04,6.58-50.08,25.72zm-315.92,73.42c-11.57,1.64-21.92,3.24-33,7.27-7.47,2.73-15.1,7.51-19.44,14.31-5.26,8.24-6.7,27.27-2.12,36,1.83,3.49,5.45,7.08,8.56,9.47,15.59,12.01,47.43,9.72,65,3.11,6.29-2.37,21.94-9.84,24.98-15.62,1.2099-2.31,1.01-5.4,1.02-7.96v-51s-45,4.42-45,4.42zm3,222.58v68h-95v-68h95zm-636,16c44.76,0,90.53,0.46006,128,28.9,24.41,18.53,38.95,48.45,39,79.1v20c-0.22995,19.32-9.29,45.84-19.7,62-11.35,17.62-28.24,31.23-46.3,41.57-19.62,11.23-46.36,18.39-69,18.43h-26-48v121h-97v-371h139zm1150,11v80h83v62h-83v122c0.04,25.26,12.88,38.48,38,39.91,6.83,0.38992,21.34-3.03,28-5.27,0,0,9-3.45,9-3.45,2.31-0.28994,5.58-0.18996,8,0v62.81s-33,5.49-33,5.49c-18.55,2.46-49.54,2.42-68,0-18.28-2.83-38.48-9.3-51.83-22.66-14.46-14.45-20.93-40.83-21.17-60.83v-138h-37v-62h37v-80h91zm-1162,169s13-0.95996,13-0.95996c15.97-0.70001,31.13-1.76,45-10.74,13.84-8.96,19.26-21.51,21.15-37.3,2.54-21.18-2.37-39.83-22.15-51.12-8.48-4.84-23.22-8.76-33-8.88,0,0-20-0.99995-20-0.99995h-34v110h30zm218-75c0-1.99-0.25994-5.67,0.98996-7.28,1.36-1.74,4.94-2.27,7.01-2.72,0,0,15-3,15-3s55-7.96,55-7.96h10s12-1.0399,12-1.0399c53.72-0.08,130.73,1.91,149.98,64,2.51,8.11,4.01,16.5,4.02,25v199h-89v-29c-20.86,17.92-42.67,30.17-70,34.56-11.57,1.86-23.31,1.57-35,1.44-8.57-0.1-20.96-3.01-29-6.06-15.72-5.96-32.05-17.98-41.48-31.94-19.64-29.08-20.07-77.55,2.8-105,29.07-34.88,87.9-41.96,130.68-45.09,0,0,42-2.91,42-2.91,0-5.57,0.06-8.56-1.75-14-5.23-15.74-20.53-21.15-35.25-24.34-11.23-2.43-22.62-2.49-34-3.34,0,0-9,0.64003-9,0.64003-21.09,0.92997-32.4,5.54-52,11.18-14.61,4.2-17.25,7.86-33,7.86v-60zm643-15.65c9.81-3.26,19.75-4.72,30-5.44,0,0,9-0.88997,9-0.88997s11,0.88997,11,0.88997c27.12,1.9,50.48,10.61,67.34,33.09,5.6,7.47,9.81,16.11,12.63,25,3.15,9.94,6.01,26.6,6.03,37v192h-90v-141s-0.9999-14-0.9999-14c-0.05-11.27-1.9-31.06-6.99-41-11.9-23.23-49.52-20.65-70.01-12.4-4.75,1.92-18.58,7.54-20.98,11.61-1.2301,2.09-1.02,5.41-1.02,7.79v189h-91v-280h91v30c13.49-11.58,37.08-26.01,54-31.65zm415,193.35c3.29,1.0999,10.61,6.45,14,8.61,0,0,18,9.38,18,9.38,19.1,8.75,48.97,17.06,70,17.31h11c11.12-0.02,28.89-2.03,38-8.63,9.2-6.68,11.68-17.89,2.9001-26.16-4.6801-4.4-11.85-6.22-17.9-7.92,0,0-43-8.37-43-8.37-41.75-6.91-88.58-20.98-99.35-67.92-1.37-5.98-2.77-16.93-2.64-23,0.15-6.22,1.73-16.08,3.66-22,13.96-42.76,60.14-62.41,101.33-68.13,0,0,18-1.87,18-1.87s17-0.99995,17-0.99995h4s19,0.99995,19,0.99995c17.14,0.20995,44.31,5.96,61,10.71,4.4699,1.2701,20.71,5.5,22.98,8.79,1.25,1.82,1.0199,5.33,1.0199,7.5v64c-2.38,0-5.76,0.12997-8-0.51006,0,0-24-13.07-24-13.07-20.61-9.05-44.23-17.15-67-17.42h-9c-11.07,0.05-29.99,3.28-39,9.79-9.58,6.92-10.95,17.88-1.96,26,8.44,7.61,32.46,11.51,43.96,13.81,42.21,8.43,95.97,11.78,113.31,59.4,4.1199,11.34,4.8299,21.09,4.69,33-0.083,7.3-2.0199,17.07-4.3601,24-14.8,43.98-68.21,63.69-110.64,67.08,0,0-10,0.91997-10,0.91997s-19,0.99995-19,0.99995h-4s-13-0.99995-13-0.99995c-26.37-0.29993-52.82-5.2-78-13.02-4.59-1.43-19.64-5.75-21.98-9.37-1.2401-1.93-1.02-5.35-1.02-7.61v-66c2.98,0,7.24-0.21996,10,0.70001zm-630-191.7v280h-91v-280h91zm-311,154.42c-9.77,1.52-19.83,3.17-29,7.04-25.93,10.95-26.59,44.05-11,55.78,16,12.03,46.14,10.13,64,3.15,5.71-2.24,20.18-9.29,22.98-14.48,1.2201-2.26,1.01-5.39,1.02-7.91v-49s-48,5.42-48,5.42zm-252,231.58v37h-51v-37h51zm372,0v37h-51v-37h51zm481,0v206h-48v-14c-6.81,4.31-12.54,9.2-20,12.68-11.71,5.47-19.53,5.46-32,5.32-36.1-0.4301-54.95-38.05-55-70-0.02-14.49-0.41-24.82,4.36-39,10.05-29.9,35.74-49.35,67.64-47.96,11.95,0.52,24.55,4.17,35,9.96v-63h48zm-1018,9v158h91v39h-142v-197h51zm628,6v42h44v33h-44v62c0.11,8.79,2.18,17.86,11,21.79,13.24,5.89,21.72-2.17,33-2.79v26c0,1.97,0.26,5.69-0.9899,7.27-1.43,1.8-5.82,2.28-8.01,2.65-6.59,1.1099-13.31,2.07-20,2.08-18.82,0.03-41.75,0.3299-54.61-16-6.27-7.96-8.37-19.11-8.39-29v-74h-20v-33h20v-42h48zm-326,38.01c12.04,0.2799,25.25,4.43,33.91,13.08,3.44,3.45,5.97,7.56,8.09,11.91,7.65-6.11,20.19-15.17,29-19.14,18.23-8.2,44.82-8.84,59.91,6.23,9.94,9.93,14.07,25.2,14.09,38.91v102h-48v-68c0-8.56,0.12997-27.73-3.4-35-6.25-12.84-23.34-11.66-34.6-6.98-2.79,1.1599-8.39,3.81-9.98,6.36-1.2401,1.99-1.0199,5.31-1.0199,7.62v96h-48v-77c-0.01-6.26-0.88998-20.68-3.56-26-6.43-12.82-23.19-11.6-34.44-6.85-3.1,1.31-8.19,3.23-9.98,6.18-1.2401,2.04-1.02,5.32-1.02,7.67v96h-48v-149h48v16c13.69-11.57,30.69-20.4,49-19.99zm539,136.99c0,2.1,0.25,5.61-0.9899,7.35-1.8,2.51-12.66,5.59-16.01,6.63-18.95,5.86-35.46,6.24-55,6.02-26.9-0.3199-57.98-11.09-72.54-35-6.9-11.35-10.3-26.79-10.46-40-0.25-21.74,5.28-44.11,21.09-59.91,20.36-20.36,44.93-22.4,71.91-22.09,15.32,0.1799,33.57,5.74,44.99,16.17,20.17,18.44,20.01,46.7,20.01,71.83h-109c1.25,6.62,2.61,12.39,6.63,18,14.64,20.41,47.15,19.18,68.37,12,10.13-3.43,21.21-10.4,24-11.3,2.36-0.77,4.57-0.68,7-0.7v31zm-677-133v149h-49v-149h49zm372,0v149h-49v-149h49zm252.47,34.18c-10.39-11.8-34.77-9.73-45.38,0.91-5.4,5.4299-7.46,12.46-8.09,19.91h60c-0.02-7.83-1.1099-14.66-6.53-20.82zm142.53,1.64c-17.47,9.16-18.2,29.09-18,46.18,0.21,18.06,7.85,33.75,28,34,7.62,0.09,23.79-1.85,27.98-9.18,1.13-1.99,1-4.6,1.02-6.82v-56c0-2.14,0.2299-5.71-1.02-7.49-1.38-1.96-4.76-2.75-6.98-3.22-6.46-1.3801-12.43-1.62-19-1-4.38,0.73-8.01,1.44-12,3.53z" stroke="0" fill="#FFF"/>
</g>
</svg>
