<?xml version="1.0" encoding="UTF-8" standalone="no"?>
<!-- Created with Inkscape (http://www.inkscape.org/) -->

<svg
   xmlns:dc="http://purl.org/dc/elements/1.1/"
   xmlns:cc="http://creativecommons.org/ns#"
   xmlns:rdf="http://www.w3.org/1999/02/22-rdf-syntax-ns#"
   xmlns:svg="http://www.w3.org/2000/svg"
   xmlns="http://www.w3.org/2000/svg"
   xmlns:sodipodi="http://sodipodi.sourceforge.net/DTD/sodipodi-0.dtd"
   xmlns:inkscape="http://www.inkscape.org/namespaces/inkscape"
   style="enable-background:new"
   height="24.004873"
   version="1.1"
   id="svg2"
   inkscape:version="0.48.4 r9939"
   width="223.16049"
   sodipodi:docname="logo.svg">
  <metadata
     id="metadata52">
    <rdf:RDF>
      <cc:Work
         rdf:about="">
        <dc:format>image/svg+xml</dc:format>
        <dc:type
           rdf:resource="http://purl.org/dc/dcmitype/StillImage" />
      </cc:Work>
    </rdf:RDF>
  </metadata>
  <defs
     id="defs50" />
  <sodipodi:namedview
     pagecolor="#ffffff"
     bordercolor="#666666"
     borderopacity="1"
     objecttolerance="10"
     gridtolerance="10"
     guidetolerance="10"
     inkscape:pageopacity="0"
     inkscape:pageshadow="2"
     inkscape:window-width="1855"
     inkscape:window-height="1176"
     id="namedview48"
     showgrid="false"
     inkscape:zoom="4.926312"
     inkscape:cx="152.75564"
     inkscape:cy="-31.655726"
     inkscape:window-x="65"
     inkscape:window-y="24"
     inkscape:window-maximized="1"
     inkscape:current-layer="svg2"
     fit-margin-top="0"
     fit-margin-left="0"
     fit-margin-right="0"
     fit-margin-bottom="0" />
  <g
     font-size="40px"
     font-weight="normal"
     transform="matrix(1.0567112,0,0,1.1452707,-40.816527,-53.417716)"
     font-style="normal"
     id="g4"
     style="font-size:40px;font-style:normal;font-weight:normal;font-family:Sans">
    <g
       style="line-height:968.9997673%;letter-spacing:0.01px;word-spacing:0px;fill:#000000"
       line-height="968.9997673%"
       id="g6">
      <path
         d="m 45.306,47.982 c -1.7733,1.5e-5 -2.6067,0.53335 -2.5,1.6 l 0.4,4.1 c 0.01333,0.12001 0.01999,0.29334 0.02,0.52 -7e-6,0.64001 -0.15334,1.1333 -0.46,1.48 -0.30667,0.33334 -0.78001,0.56001 -1.42,0.68 0.65333,0.12001 1.1267,0.34667 1.42,0.68 0.30666,0.32001 0.45999,0.80667 0.46,1.46 -7e-6,0.22667 -0.0067,0.40667 -0.02,0.54 l -0.4,4.1 c -0.05334,0.58667 0.14666,1 0.6,1.24 0.45332,0.24 1.0867,0.36 1.9,0.36 v 1.34 c -1.2,-3e-6 -2.18,-0.20667 -2.94,-0.62 -0.76001,-0.41334 -1.14,-1.1133 -1.14,-2.1 -5e-6,-0.17333 0.0067,-0.30667 0.02,-0.4 l 0.42,-3.8 c 0.01333,-0.09333 0.01999,-0.22666 0.02,-0.4 -6e-6,-0.58666 -0.22001,-1.02 -0.66,-1.3 -0.44,-0.27999 -1.24,-0.41999 -2.4,-0.42 v -1.36 c 1.16,7e-6 1.96,-0.13333 2.4,-0.4 0.43999,-0.27999 0.65999,-0.71332 0.66,-1.3 -6e-6,-0.15999 -0.0067,-0.28666 -0.02,-0.38 l -0.42,-3.84 c -0.01334,-0.09332 -0.02,-0.22665 -0.02,-0.4 -5e-6,-0.98665 0.37999,-1.6867 1.14,-2.1 0.75999,-0.41332 1.74,-0.61998 2.94,-0.62 v 1.34"
         id="path8"
         inkscape:connector-curvature="0" />
      <path
         d="m 51.958,54.282 c 0.41333,-0.53332 0.92,-0.94666 1.52,-1.24 0.59999,-0.29332 1.22,-0.43999 1.86,-0.44 1.9733,1e-5 2.96,1.04 2.96,3.12 v 7.64 h -1.68 v -7.62 c -8e-6,-0.62666 -0.14668,-1.08 -0.44,-1.36 -0.29334,-0.29332 -0.76001,-0.43999 -1.4,-0.44 -0.54667,9e-6 -1.0733,0.17334 -1.58,0.52 -0.50667,0.34668 -0.92,0.75334 -1.24,1.22 v 7.68 h -1.68 v -14.76 l 1.68,-0.18 v 5.86"
         id="path10"
         inkscape:connector-curvature="0" />
      <path
         d="m 69.83,61.062 c -1e-5,0.41334 0.06666,0.72 0.2,0.92 0.13332,0.18667 0.35332,0.32667 0.66,0.42 l -0.42,1.2 c -1.0267,-0.13333 -1.6667,-0.63333 -1.92,-1.5 -0.37334,0.48 -0.84667,0.84667 -1.42,1.1 -0.56001,0.25333 -1.1867,0.38 -1.88,0.38 -1.0533,-10e-7 -1.8867,-0.29333 -2.5,-0.88 -0.6,-0.58667 -0.9,-1.3733 -0.9,-2.36 -2e-6,-1.08 0.42,-1.9133 1.26,-2.5 0.85333,-0.58666 2.0733,-0.87999 3.66,-0.88 h 1.56 v -0.86 c -8e-6,-0.74666 -0.21334,-1.28 -0.64,-1.6 -0.42667,-0.33332 -1.0467,-0.49999 -1.86,-0.5 -0.8,9e-6 -1.7133,0.18001 -2.74,0.54 l -0.46,-1.28 c 1.24,-0.43999 2.3933,-0.65999 3.46,-0.66 1.28,1e-5 2.2533,0.30001 2.92,0.9 0.67999,0.60001 1.02,1.4333 1.02,2.5 v 5.06 m -4.36,1.26 c 0.51999,10e-7 1.0133,-0.13333 1.48,-0.4 0.47999,-0.26666 0.87332,-0.63333 1.18,-1.1 v -2.7 h -1.52 c -1.12,5e-6 -1.9267,0.18667 -2.42,0.56 -0.49334,0.37334 -0.74,0.92 -0.74,1.64 -4e-6,1.3333 0.67333,2 2.02,2"
         id="path12"
         inkscape:connector-curvature="0" />
      <path
         d="m 77.862,62.202 c 0.79999,1e-6 1.4333,-0.15333 1.9,-0.46 0.46666,-0.30666 0.69999,-0.71333 0.7,-1.22 -8e-6,-0.34666 -0.06001,-0.62666 -0.18,-0.84 -0.12001,-0.22666 -0.36001,-0.42666 -0.72,-0.6 -0.36001,-0.18666 -0.90667,-0.37333 -1.64,-0.56 -1.2267,-0.30666 -2.1333,-0.67333 -2.72,-1.1 -0.58667,-0.43999 -0.88,-1.0867 -0.88,-1.94 -2e-6,-0.87999 0.36666,-1.58 1.1,-2.1 0.73333,-0.51999 1.7,-0.77999 2.9,-0.78 1.4667,1e-5 2.7467,0.38668 3.84,1.16 l -0.76,1.16 c -0.44001,-0.30666 -0.90001,-0.53999 -1.38,-0.7 -0.48001,-0.17332 -1.0333,-0.25999 -1.66,-0.26 -1.52,9e-6 -2.28,0.46001 -2.28,1.38 -4e-6,0.32001 0.08,0.58001 0.24,0.78 0.17333,0.20001 0.44666,0.38001 0.82,0.54 0.38666,0.14667 0.95999,0.32667 1.72,0.54 1.1467,0.30667 2,0.7 2.56,1.18 0.57332,0.46667 0.85999,1.1533 0.86,2.06 -1e-5,1.0533 -0.42668,1.84 -1.28,2.36 -0.85334,0.52 -1.9,0.78 -3.14,0.78 -1.6533,-10e-7 -3.0267,-0.47333 -4.12,-1.42 l 0.94,-1.1 c 0.42666,0.34667 0.91333,0.62667 1.46,0.84 0.54666,0.2 1.12,0.3 1.72,0.3"
         id="path14"
         inkscape:connector-curvature="0" />
      <path
         d="m 94.634,62.822 c -0.36001,0.24 -0.80001,0.42667 -1.32,0.56 -0.50668,0.13333 -1.0133,0.2 -1.52,0.2 -1.1067,-10e-7 -1.9733,-0.28667 -2.6,-0.86 -0.62667,-0.58667 -0.94,-1.3533 -0.94,-2.3 v -6.28 h -2.42 v -1.32 h 2.42 v -2.38 l 1.68,-0.2 v 2.58 h 3.66 l -0.22,1.32 h -3.44 v 6.26 c -6e-6,0.6 0.15999,1.0467 0.48,1.34 0.31999,0.29333 0.83333,0.44 1.54,0.44 0.71999,10e-7 1.3933,-0.16667 2.02,-0.5 l 0.66,1.14"
         id="path16"
         inkscape:connector-curvature="0" />
      <path
         d="m 102.25,47.902 c 0.37333,1.5e-5 0.67333,0.11335 0.9,0.34 0.22666,0.21335 0.34,0.49335 0.34,0.84 0,0.34668 -0.11334,0.63335 -0.34,0.86 -0.22667,0.21335 -0.52667,0.32001 -0.9,0.32 -0.36,1.3e-5 -0.65334,-0.10665 -0.88,-0.32 -0.21334,-0.22665 -0.32,-0.51332 -0.32,-0.86 0,-0.34665 0.10666,-0.62665 0.32,-0.84 0.22666,-0.22665 0.52,-0.33998 0.88,-0.34 m 1.34,14.12 2.96,0 0,1.34 -7.88,0 0,-1.34 3.24,0 0,-7.86 -3.14,0 0,-1.34 4.82,0 0,9.2"
         id="path18"
         inkscape:connector-curvature="0" />
      <path
         d="m 110.24,52.822 1.44,0 0.14,1.48 c 0.41333,-0.53332 0.93333,-0.94666 1.56,-1.24 0.63999,-0.30666 1.28,-0.45999 1.92,-0.46 1.9733,1e-5 2.96,1.04 2.96,3.12 v 7.64 h -1.68 v -6.4 c -1e-5,-0.78666 -0.0467,-1.3867 -0.14,-1.8 -0.08,-0.41332 -0.24667,-0.71999 -0.5,-0.92 -0.25334,-0.19999 -0.64001,-0.29999 -1.16,-0.3 -0.57334,9e-6 -1.1133,0.17334 -1.62,0.52 -0.50667,0.34668 -0.92,0.76001 -1.24,1.24 v 7.66 h -1.68 v -10.54"
         id="path20"
         inkscape:connector-curvature="0" />
      <path
         d="m 131.31,53.302 c -0.40001,0.13334 -0.83335,0.22001 -1.3,0.26 -0.46668,0.02668 -1.06,0.04001 -1.78,0.04 1.2267,0.56001 1.84,1.4467 1.84,2.66 -1e-5,1.0667 -0.35334,1.9333 -1.06,2.6 -0.70668,0.65334 -1.6733,0.98 -2.9,0.98 -0.62667,3e-6 -1.1533,-0.07333 -1.58,-0.22 -0.16001,0.12 -0.29334,0.27334 -0.4,0.46 -0.0933,0.18667 -0.14001,0.37334 -0.14,0.56 -10e-6,0.6 0.46666,0.9 1.4,0.9 h 1.9 c 0.69332,10e-7 1.32,0.12667 1.88,0.38 0.57332,0.24 1.02,0.58 1.34,1.02 0.33332,0.44 0.49999,0.92667 0.5,1.46 -1e-5,1.0267 -0.44001,1.8133 -1.32,2.36 -0.86668,0.56 -2.1,0.84 -3.7,0.84 -1.6267,-5e-6 -2.7733,-0.25334 -3.44,-0.76 -0.66667,-0.50667 -1,-1.3133 -1,-2.42 h 1.52 c 0,0.44 0.08,0.78666 0.24,1.04 0.17333,0.26666 0.46666,0.46 0.88,0.58 0.42666,0.13333 1.0267,0.2 1.8,0.2 1.1333,-3e-6 1.9667,-0.14667 2.5,-0.44 0.54666,-0.29334 0.81999,-0.72667 0.82,-1.3 -1e-5,-0.48 -0.22001,-0.85333 -0.66,-1.12 -0.44001,-0.25333 -1.0067,-0.38 -1.7,-0.38 h -1.88 c -0.86667,0 -1.5267,-0.18667 -1.98,-0.56 -0.45334,-0.38667 -0.68,-0.86666 -0.68,-1.44 0,-0.33333 0.1,-0.66 0.3,-0.98 0.2,-0.33333 0.48666,-0.62 0.86,-0.86 -0.6,-0.30666 -1.0467,-0.69333 -1.34,-1.16 -0.28,-0.48 -0.42,-1.06 -0.42,-1.74 0,-0.70666 0.17333,-1.3333 0.52,-1.88 0.36,-0.55999 0.85333,-0.99332 1.48,-1.3 0.63999,-0.31999 1.3733,-0.47999 2.2,-0.48 1.2,1e-5 2.1133,-0.06666 2.74,-0.2 0.62666,-0.13332 1.3133,-0.35999 2.06,-0.68 l 0.5,1.58 m -5.32,0.54 c -0.81334,9e-6 -1.4267,0.22001 -1.84,0.66 -0.41334,0.42668 -0.62001,1.0133 -0.62,1.76 -1e-5,0.74667 0.20666,1.3467 0.62,1.8 0.42666,0.44 1.0533,0.66 1.88,0.66 0.74666,4e-6 1.3133,-0.21333 1.7,-0.64 0.39999,-0.44 0.59999,-1.0533 0.6,-1.84 -1e-5,-1.6 -0.78001,-2.4 -2.34,-2.4"
         id="path22"
         inkscape:connector-curvature="0" />
      <path
         d="m 137.82,62.202 c 0.79999,1e-6 1.4333,-0.15333 1.9,-0.46 0.46665,-0.30666 0.69999,-0.71333 0.7,-1.22 -10e-6,-0.34666 -0.06,-0.62666 -0.18,-0.84 -0.12001,-0.22666 -0.36001,-0.42666 -0.72,-0.6 -0.36001,-0.18666 -0.90668,-0.37333 -1.64,-0.56 -1.2267,-0.30666 -2.1333,-0.67333 -2.72,-1.1 -0.58667,-0.43999 -0.88001,-1.0867 -0.88,-1.94 -1e-5,-0.87999 0.36666,-1.58 1.1,-2.1 0.73333,-0.51999 1.7,-0.77999 2.9,-0.78 1.4666,1e-5 2.7466,0.38668 3.84,1.16 l -0.76,1.16 c -0.44001,-0.30666 -0.90001,-0.53999 -1.38,-0.7 -0.48001,-0.17332 -1.0333,-0.25999 -1.66,-0.26 -1.52,9e-6 -2.28,0.46001 -2.28,1.38 -1e-5,0.32001 0.08,0.58001 0.24,0.78 0.17332,0.20001 0.44666,0.38001 0.82,0.54 0.38666,0.14667 0.95999,0.32667 1.72,0.54 1.1466,0.30667 2,0.7 2.56,1.18 0.57332,0.46667 0.85999,1.1533 0.86,2.06 -1e-5,1.0533 -0.42668,1.84 -1.28,2.36 -0.85335,0.52 -1.9,0.78 -3.14,0.78 -1.6533,-10e-7 -3.0267,-0.47333 -4.12,-1.42 l 0.94,-1.1 c 0.42666,0.34667 0.91333,0.62667 1.46,0.84 0.54666,0.2 1.12,0.3 1.72,0.3"
         id="path24"
         inkscape:connector-curvature="0" />
      <path
         d="m 148.44,61.822 c 0,-0.49333 0.16667,-0.90666 0.5,-1.24 0.34666,-0.34666 0.76666,-0.52 1.26,-0.52 0.50666,3e-6 0.92666,0.17334 1.26,0.52 0.33333,0.33334 0.5,0.74667 0.5,1.24 0,0.50667 -0.16667,0.92667 -0.5,1.26 -0.33334,0.33333 -0.75334,0.5 -1.26,0.5 -0.49334,-10e-7 -0.91334,-0.16667 -1.26,-0.5 -0.33333,-0.34667 -0.5,-0.76667 -0.5,-1.26"
         id="path26"
         inkscape:connector-curvature="0" />
      <path
         d="m 166.21,48.582 0,14.78 -1.48,0 -0.16,-1.38 c -0.38667,0.53333 -0.83334,0.93333 -1.34,1.2 -0.50667,0.26667 -1.0533,0.4 -1.64,0.4 -1.3333,-10e-7 -2.34,-0.48667 -3.02,-1.46 -0.66667,-0.97333 -1,-2.3133 -1,-4.02 0,-1.0533 0.16667,-1.9933 0.5,-2.82 0.33333,-0.83999 0.80666,-1.4933 1.42,-1.96 0.62666,-0.47999 1.36,-0.71999 2.2,-0.72 1.16,1e-5 2.1067,0.42001 2.84,1.26 v -5.48 l 1.68,0.2 m -4.08,5.38 c -0.88,9e-6 -1.56,0.34668 -2.04,1.04 -0.46667,0.69334 -0.7,1.7267 -0.7,3.1 0,1.36 0.21333,2.3933 0.64,3.1 0.44,0.69333 1.0733,1.04 1.9,1.04 0.99999,1e-6 1.8667,-0.56 2.6,-1.68 v -5.24 c -0.29334,-0.43999 -0.64667,-0.77332 -1.06,-1 -0.41334,-0.23999 -0.86001,-0.35999 -1.34,-0.36"
         id="path28"
         inkscape:connector-curvature="0" />
      <path
         d="m 174.2,47.902 c 0.37333,1.5e-5 0.67332,0.11335 0.9,0.34 0.22666,0.21335 0.33999,0.49335 0.34,0.84 -1e-5,0.34668 -0.11334,0.63335 -0.34,0.86 -0.22668,0.21335 -0.52667,0.32001 -0.9,0.32 -0.36001,1.3e-5 -0.65334,-0.10665 -0.88,-0.32 -0.21334,-0.22665 -0.32001,-0.51332 -0.32,-0.86 -1e-5,-0.34665 0.10666,-0.62665 0.32,-0.84 0.22666,-0.22665 0.51999,-0.33998 0.88,-0.34 m 1.34,14.12 2.96,0 0,1.34 -7.88,0 0,-1.34 3.24,0 0,-7.86 -3.14,0 0,-1.34 4.82,0 0,9.2"
         id="path30"
         inkscape:connector-curvature="0" />
      <path
         d="m 191.27,53.302 c -0.40002,0.13334 -0.83335,0.22001 -1.3,0.26 -0.46668,0.02668 -1.06,0.04001 -1.78,0.04 1.2266,0.56001 1.84,1.4467 1.84,2.66 -1e-5,1.0667 -0.35335,1.9333 -1.06,2.6 -0.70668,0.65334 -1.6733,0.98 -2.9,0.98 -0.62668,3e-6 -1.1533,-0.07333 -1.58,-0.22 -0.16001,0.12 -0.29334,0.27334 -0.4,0.46 -0.0933,0.18667 -0.14001,0.37334 -0.14,0.56 -10e-6,0.6 0.46666,0.9 1.4,0.9 h 1.9 c 0.69332,10e-7 1.32,0.12667 1.88,0.38 0.57332,0.24 1.02,0.58 1.34,1.02 0.33332,0.44 0.49998,0.92667 0.5,1.46 -2e-5,1.0267 -0.44001,1.8133 -1.32,2.36 -0.86668,0.56 -2.1,0.84 -3.7,0.84 -1.6267,-5e-6 -2.7733,-0.25334 -3.44,-0.76 -0.66667,-0.50667 -1,-1.3133 -1,-2.42 h 1.52 c -1e-5,0.44 0.08,0.78666 0.24,1.04 0.17333,0.26666 0.46666,0.46 0.88,0.58 0.42666,0.13333 1.0267,0.2 1.8,0.2 1.1333,-3e-6 1.9666,-0.14667 2.5,-0.44 0.54665,-0.29334 0.81999,-0.72667 0.82,-1.3 -1e-5,-0.48 -0.22001,-0.85333 -0.66,-1.12 -0.44001,-0.25333 -1.0067,-0.38 -1.7,-0.38 h -1.88 c -0.86668,0 -1.5267,-0.18667 -1.98,-0.56 -0.45334,-0.38667 -0.68001,-0.86666 -0.68,-1.44 -1e-5,-0.33333 0.1,-0.66 0.3,-0.98 0.19999,-0.33333 0.48666,-0.62 0.86,-0.86 -0.60001,-0.30666 -1.0467,-0.69333 -1.34,-1.16 -0.28001,-0.48 -0.42001,-1.06 -0.42,-1.74 -1e-5,-0.70666 0.17333,-1.3333 0.52,-1.88 0.35999,-0.55999 0.85333,-0.99332 1.48,-1.3 0.63999,-0.31999 1.3733,-0.47999 2.2,-0.48 1.2,1e-5 2.1133,-0.06666 2.74,-0.2 0.62665,-0.13332 1.3133,-0.35999 2.06,-0.68 l 0.5,1.58 m -5.32,0.54 c -0.81334,9e-6 -1.4267,0.22001 -1.84,0.66 -0.41334,0.42668 -0.62001,1.0133 -0.62,1.76 -1e-5,0.74667 0.20666,1.3467 0.62,1.8 0.42666,0.44 1.0533,0.66 1.88,0.66 0.74666,4e-6 1.3133,-0.21333 1.7,-0.64 0.39999,-0.44 0.59999,-1.0533 0.6,-1.84 -1e-5,-1.6 -0.78001,-2.4 -2.34,-2.4"
         id="path32"
         inkscape:connector-curvature="0" />
      <path
         d="m 198.18,47.902 c 0.37333,1.5e-5 0.67333,0.11335 0.9,0.34 0.22666,0.21335 0.34,0.49335 0.34,0.84 0,0.34668 -0.11334,0.63335 -0.34,0.86 -0.22667,0.21335 -0.52667,0.32001 -0.9,0.32 -0.36,1.3e-5 -0.65334,-0.10665 -0.88,-0.32 -0.21334,-0.22665 -0.32,-0.51332 -0.32,-0.86 0,-0.34665 0.10666,-0.62665 0.32,-0.84 0.22666,-0.22665 0.52,-0.33998 0.88,-0.34 m 1.34,14.12 2.96,0 0,1.34 -7.88,0 0,-1.34 3.24,0 0,-7.86 -3.14,0 0,-1.34 4.82,0 0,9.2"
         id="path34"
         inkscape:connector-curvature="0" />
      <path
         d="m 214.56,62.822 c -0.36001,0.24 -0.80001,0.42667 -1.32,0.56 -0.50667,0.13333 -1.0133,0.2 -1.52,0.2 -1.1067,-10e-7 -1.9733,-0.28667 -2.6,-0.86 -0.62667,-0.58667 -0.94,-1.3533 -0.94,-2.3 v -6.28 h -2.42 v -1.32 h 2.42 v -2.38 l 1.68,-0.2 v 2.58 h 3.66 l -0.22,1.32 h -3.44 v 6.26 c -1e-5,0.6 0.15999,1.0467 0.48,1.34 0.31999,0.29333 0.83333,0.44 1.54,0.44 0.71999,10e-7 1.3933,-0.16667 2.02,-0.5 l 0.66,1.14"
         id="path36"
         inkscape:connector-curvature="0" />
      <path
         d="m 225.73,61.062 c -1e-5,0.41334 0.0667,0.72 0.2,0.92 0.13332,0.18667 0.35332,0.32667 0.66,0.42 l -0.42,1.2 c -1.0267,-0.13333 -1.6667,-0.63333 -1.92,-1.5 -0.37334,0.48 -0.84668,0.84667 -1.42,1.1 -0.56001,0.25333 -1.1867,0.38 -1.88,0.38 -1.0533,-10e-7 -1.8867,-0.29333 -2.5,-0.88 -0.6,-0.58667 -0.9,-1.3733 -0.9,-2.36 0,-1.08 0.42,-1.9133 1.26,-2.5 0.85333,-0.58666 2.0733,-0.87999 3.66,-0.88 h 1.56 v -0.86 c -1e-5,-0.74666 -0.21334,-1.28 -0.64,-1.6 -0.42668,-0.33332 -1.0467,-0.49999 -1.86,-0.5 -0.80001,9e-6 -1.7133,0.18001 -2.74,0.54 l -0.46,-1.28 c 1.24,-0.43999 2.3933,-0.65999 3.46,-0.66 1.28,1e-5 2.2533,0.30001 2.92,0.9 0.67999,0.60001 1.02,1.4333 1.02,2.5 v 5.06 m -4.36,1.26 c 0.51999,10e-7 1.0133,-0.13333 1.48,-0.4 0.47999,-0.26666 0.87332,-0.63333 1.18,-1.1 v -2.7 h -1.52 c -1.12,5e-6 -1.9267,0.18667 -2.42,0.56 -0.49334,0.37334 -0.74001,0.92 -0.74,1.64 -1e-5,1.3333 0.67333,2 2.02,2"
         id="path38"
         inkscape:connector-curvature="0" />
      <path
         d="m 234.28,60.762 c -1e-5,0.94667 0.57999,1.42 1.74,1.42 0.54665,10e-7 1.1333,-0.12 1.76,-0.36 l 0.44,1.22 c -0.66668,0.36 -1.5,0.54 -2.5,0.54 -0.94668,-10e-7 -1.7067,-0.26 -2.28,-0.78 -0.56001,-0.52 -0.84001,-1.2267 -0.84,-2.12 v -10.76 h -3.24 v -1.34 h 4.92 v 12.18"
         id="path40"
         inkscape:connector-curvature="0" />
      <path
         d="m 243.13,46.642 c 1.2,1.6e-5 2.18,0.20668 2.94,0.62 0.76,0.41335 1.14,1.1133 1.14,2.1 0,0.17335 -0.007,0.30668 -0.02,0.4 l -0.42,3.84 c -0.0133,0.06668 -0.02,0.16668 -0.02,0.3 0,0.60001 0.23333,1.0467 0.7,1.34 0.48,0.29334 1.2667,0.44001 2.36,0.44 v 1.36 c -1.1067,6e-6 -1.8933,0.14667 -2.36,0.44 -0.46667,0.29334 -0.7,0.74667 -0.7,1.36 0,0.13334 0.007,0.24 0.02,0.32 l 0.42,3.8 c 0.0133,0.09333 0.02,0.22667 0.02,0.4 0,0.98666 -0.38,1.6867 -1.14,2.1 -0.76,0.41333 -1.74,0.62 -2.94,0.62 v -1.34 c 0.81333,-2e-6 1.4467,-0.12 1.9,-0.36 0.45333,-0.24 0.65333,-0.65333 0.6,-1.24 l -0.4,-4.1 c -0.0267,-0.26666 -0.04,-0.44666 -0.04,-0.54 0,-0.66666 0.16666,-1.16 0.5,-1.48 0.33333,-0.31999 0.87333,-0.53333 1.62,-0.64 -0.72,-0.13333 -1.2533,-0.36666 -1.6,-0.7 -0.33334,-0.34666 -0.5,-0.84666 -0.5,-1.5 0,-0.21332 0.007,-0.37999 0.02,-0.5 l 0.4,-4.1 c 0.10666,-1.0667 -0.72667,-1.6 -2.5,-1.6 v -1.34"
         id="path42"
         inkscape:connector-curvature="0" />
    </g>
    <text
       style="line-height:125%;letter-spacing:0px;word-spacing:0px;fill:#000000"
       xml:space="preserve"
       y="795.21936"
       x="191.42857"
       line-height="125%"
       id="text44"
       sodipodi:linespacing="125%"><tspan
         x="191.42857"
         y="795.21936"
         id="tspan46" /></text>
  </g>
</svg>
